<?xml version="1.0" encoding="utf-8"?>
<!-- Generator: Adobe Illustrator 23.1.1, SVG Export Plug-In . SVG Version: 6.00 Build 0)  -->
<svg version="1.1" id="Layer_2" xmlns="http://www.w3.org/2000/svg" xmlns:xlink="http://www.w3.org/1999/xlink" x="0px" y="0px"
	 viewBox="0 0 792 612" style="enable-background:new 0 0 792 612;" xml:space="preserve">
<style type="text/css">
	.st0{fill:none;stroke:#155AA9;stroke-width:0.9;stroke-linejoin:round;stroke-miterlimit:10;}
	.st1{fill:none;stroke:#155AA9;stroke-width:0.9;stroke-miterlimit:10;}
	.st2{fill:#FFFFFF;stroke:#155AA9;stroke-width:0.9;stroke-miterlimit:10;}
	.st3{fill:#0033A1;stroke:#FFFFFF;stroke-width:0.0491;stroke-miterlimit:10;}
	.st4{fill:#FFFFFF;}
	.st5{fill:none;stroke:#155AA9;stroke-width:0.7979;stroke-linejoin:round;stroke-miterlimit:10;}
	.st6{fill:none;stroke:#155AA9;stroke-width:0.3736;stroke-linecap:round;stroke-linejoin:round;stroke-miterlimit:10;}
	.st7{fill:#FFFFFF;stroke:#155AA9;stroke-width:0.9;stroke-linejoin:round;stroke-miterlimit:10;}
	.st8{fill:none;stroke:#155AA9;stroke-width:0.7247;stroke-linecap:round;stroke-linejoin:round;stroke-miterlimit:10;}
	.st9{fill:none;stroke:#155AA9;stroke-width:0.5795;stroke-linecap:round;stroke-linejoin:round;stroke-miterlimit:10;}
	.st10{fill:#FFFFFF;stroke:#155AA9;stroke-width:0.6225;stroke-miterlimit:10;}
	.st11{fill:#FFFFFF;stroke:#155AA9;stroke-width:0.6302;stroke-miterlimit:10;}
	.st12{fill:#FFFFFF;stroke:#155AA9;stroke-width:0.6935;stroke-miterlimit:10;}
	.st13{fill:#FFFFFF;stroke:#155AA9;stroke-width:0.6127;stroke-miterlimit:10;}
	.st14{fill:#FFFFFF;stroke:#155AA9;stroke-width:0.8716;stroke-miterlimit:10;}
	.st15{fill:none;stroke:#155AA9;stroke-width:0.5642;stroke-linejoin:round;stroke-miterlimit:10;}
	.st16{fill:#FFFFFF;stroke:#155AA9;stroke-width:0.5;stroke-miterlimit:10;}
	.st17{fill:#155AA9;}
	.st18{fill:none;stroke:#155AA9;stroke-width:0.7577;stroke-linejoin:round;stroke-miterlimit:10;}
	.st19{fill:#FFFFFF;stroke:#155AA9;stroke-width:0.8297;stroke-linejoin:round;stroke-miterlimit:10;}
	.st20{fill:#FFFFFF;stroke:#155AA9;stroke-width:0.8308;stroke-linejoin:round;stroke-miterlimit:10;}
	.st21{fill:none;stroke:#155AA9;stroke-width:0.8308;stroke-linejoin:round;stroke-miterlimit:10;}
	.st22{fill:none;stroke:#155AA9;stroke-width:0.5;stroke-miterlimit:10;}
	.st23{fill:none;stroke:#155AA9;stroke-width:0.5265;stroke-linejoin:round;stroke-miterlimit:10;}
	.st24{fill:#FFFFFF;stroke:#000000;stroke-miterlimit:10;}
</style>
<line class="st0" x1="208.84" y1="122.64" x2="208.84" y2="307.04"/>
<line class="st0" x1="13.03" y1="441.34" x2="140.83" y2="392.61"/>
<line class="st0" x1="135.67" y1="375.65" x2="13.03" y2="414.56"/>
<polyline class="st0" points="13.03,275.41 208.84,258.91 509.01,275.41 "/>
<line class="st0" x1="677.1" y1="266.62" x2="786.61" y2="271.86"/>
<polyline class="st0" points="201.42,244.55 208.82,244.21 642.23,264.95 "/>
<line class="st0" x1="13.03" y1="253.05" x2="192.13" y2="244.97"/>
<line class="st0" x1="677.08" y1="248" x2="786.61" y2="252.38"/>
<polyline class="st0" points="13.03,233.11 208.82,229.28 642.23,246.61 "/>
<line class="st0" x1="677.08" y1="229.13" x2="786.61" y2="232.45"/>
<line class="st0" x1="677.08" y1="208.26" x2="786.61" y2="211.58"/>
<line class="st0" x1="540.92" y1="184.55" x2="786.61" y2="189.43"/>
<line class="st0" x1="540.93" y1="164.12" x2="787.92" y2="166.58"/>
<line class="st0" x1="677.09" y1="142.58" x2="786.61" y2="142.58"/>
<line class="st0" x1="677.17" y1="119.47" x2="786.61" y2="117.81"/>
<polyline class="st0" points="13.03,212.32 208.82,214.92 642.23,228.07 "/>
<line class="st0" x1="13.03" y1="191.65" x2="154.39" y2="196.02"/>
<line class="st0" x1="13.03" y1="172.02" x2="154.08" y2="178.24"/>
<line class="st0" x1="13.03" y1="152.63" x2="154.39" y2="161.45"/>
<line class="st0" x1="13.03" y1="134" x2="154.39" y2="144.4"/>
<line class="st0" x1="12.73" y1="116.92" x2="154.08" y2="128.36"/>
<line class="st0" x1="135.67" y1="358.13" x2="13.03" y2="391.21"/>
<line class="st0" x1="135.67" y1="321.48" x2="13.03" y2="343.61"/>
<line class="st0" x1="135.67" y1="301.37" x2="13.03" y2="320.84"/>
<line class="st0" x1="135.67" y1="283.98" x2="13.03" y2="299.72"/>
<line class="st0" x1="135.67" y1="339.77" x2="13.03" y2="366.63"/>
<line class="st0" x1="33.42" y1="101.27" x2="33.42" y2="433.56"/>
<line class="st0" x1="53.28" y1="103.34" x2="53.28" y2="425.99"/>
<line class="st0" x1="71.83" y1="105.23" x2="71.83" y2="418.92"/>
<line class="st0" x1="90.12" y1="107.13" x2="90.12" y2="411.95"/>
<line class="st0" x1="106.33" y1="108.81" x2="106.33" y2="405.77"/>
<line class="st0" x1="121.72" y1="110.41" x2="121.72" y2="399.9"/>
<line class="st0" x1="137.1" y1="112.07" x2="137.1" y2="283.72"/>
<line class="st0" x1="152.84" y1="113.47" x2="152.84" y2="282.44"/>
<line class="st0" x1="167.35" y1="206.02" x2="167.35" y2="280.41"/>
<line class="st0" x1="181.4" y1="206.35" x2="181.4" y2="278.65"/>
<line class="st0" x1="195.57" y1="246.69" x2="195.57" y2="277.32"/>
<line class="st0" x1="195.57" y1="206.73" x2="195.57" y2="230.02"/>
<line class="st0" x1="222.25" y1="207.44" x2="222.25" y2="276.73"/>
<line class="st0" x1="235.85" y1="207.88" x2="235.85" y2="276.73"/>
<line class="st0" x1="249.72" y1="208.3" x2="249.72" y2="277.7"/>
<line class="st0" x1="262.83" y1="208.59" x2="262.83" y2="278.03"/>
<line class="st0" x1="276.79" y1="208.99" x2="276.79" y2="279.11"/>
<line class="st0" x1="355.8" y1="211.19" x2="355.8" y2="283.7"/>
<line class="st0" x1="371.78" y1="211.52" x2="371.78" y2="284.84"/>
<line class="st0" x1="388.18" y1="212" x2="388.18" y2="285.67"/>
<line class="st0" x1="404.27" y1="212.32" x2="404.27" y2="286.58"/>
<line class="st0" x1="419.75" y1="212.71" x2="419.75" y2="287.39"/>
<line class="st0" x1="435.64" y1="213.27" x2="435.64" y2="287.99"/>
<line class="st0" x1="452.13" y1="213.68" x2="452.13" y2="289.11"/>
<line class="st0" x1="468.77" y1="214.04" x2="468.77" y2="290.12"/>
<line class="st0" x1="485.32" y1="214.43" x2="485.32" y2="291.03"/>
<line class="st0" x1="501.96" y1="214.92" x2="501.96" y2="291.99"/>
<line class="st0" x1="293.53" y1="209.34" x2="293.53" y2="265.64"/>
<line class="st0" x1="308.13" y1="209.81" x2="308.13" y2="266.41"/>
<line class="st0" x1="323.05" y1="210.33" x2="323.05" y2="267.5"/>
<line class="st0" x1="339.71" y1="210.7" x2="339.71" y2="268.26"/>
<path class="st0" d="M106.33,211.9"/>
<line class="st0" x1="677.08" y1="285.08" x2="787.07" y2="291.05"/>
<line class="st0" x1="677.08" y1="302.69" x2="787.07" y2="310.8"/>
<line class="st0" x1="677.08" y1="321.18" x2="787.07" y2="329.47"/>
<line class="st0" x1="677.08" y1="339.92" x2="787.92" y2="350.19"/>
<line class="st0" x1="677.08" y1="358.95" x2="789.17" y2="369.55"/>
<line class="st0" x1="677.08" y1="380.47" x2="789.17" y2="391.14"/>
<line class="st0" x1="677.08" y1="404.06" x2="789.17" y2="415.9"/>
<path class="st0" d="M740.72,435.74"/>
<path class="st0" d="M677.08,427.34"/>
<line class="st0" x1="699.21" y1="96.31" x2="699.21" y2="430.25"/>
<line class="st0" x1="677.17" y1="97.14" x2="677.17" y2="430.14"/>
<line class="st0" x1="654.42" y1="161.38" x2="654.42" y2="190.81"/>
<line class="st0" x1="631.75" y1="164.98" x2="631.75" y2="190.81"/>
<line class="st0" x1="609.09" y1="164.58" x2="609.09" y2="190.39"/>
<line class="st0" x1="586.42" y1="164.58" x2="586.42" y2="189.96"/>
<line class="st0" x1="563.76" y1="164.02" x2="563.76" y2="189.55"/>
<line class="st0" x1="721.33" y1="95.27" x2="721.33" y2="433.28"/>
<line class="st0" x1="744.12" y1="94.19" x2="744.12" y2="436.34"/>
<line class="st0" x1="766.91" y1="93.12" x2="766.91" y2="439.34"/>
<polygon class="st0" points="509.01,444.12 509.01,198.3 642.23,202.95 642.23,466.37 "/>
<polyline class="st1" points="12.73,99.09 208.93,119.47 789.54,92.05 "/>
<line class="st2" x1="208.93" y1="144.4" x2="208.93" y2="307.19"/>
<g>
	<polygon class="st3" points="638.96,235.77 629.67,235.33 629.67,219.42 638.96,219.87 	"/>
	<g>
		<g>
			<g>
				<path class="st3" d="M636.9,224.31c0,1.92-1.81,2.12-2.66,2.08c-0.85-0.04-2.69-0.41-2.69-2.33c0-1.58,0.7-2.36,0.87-2.42
					s1.8,0.04,1.8,0.04s1.68,0.05,1.8,0.16C636.14,221.95,636.9,222.73,636.9,224.31z"/>
				<g>
					<polygon class="st4" points="633.45,224.41 632.94,224.39 632.94,222.42 633.45,222.45 					"/>
					<polygon class="st4" points="635.52,224.51 635,224.48 635,222.52 635.52,222.54 					"/>
					
						<ellipse transform="matrix(0.7153 -0.6989 0.6989 0.7153 23.0493 507.5099)" class="st4" cx="634.32" cy="225.47" rx="0.47" ry="0.49"/>
				</g>
			</g>
			<g>
				<path class="st3" d="M636.9,230.79c0,1.92-1.81,2.12-2.66,2.08c-0.85-0.04-2.69-0.41-2.69-2.33c0-1.58,0.7-2.36,0.87-2.42
					s1.8,0.04,1.8,0.04s1.68,0.05,1.8,0.16C636.14,228.43,636.9,229.21,636.9,230.79z"/>
				<g>
					<polygon class="st4" points="633.45,230.89 632.94,230.87 632.94,228.9 633.45,228.93 					"/>
					<polygon class="st4" points="635.52,230.99 635,230.96 635,229 635.52,229.02 					"/>
					
						<ellipse transform="matrix(0.7153 -0.6989 0.6989 0.7153 18.5188 509.3558)" class="st4" cx="634.32" cy="231.95" rx="0.47" ry="0.49"/>
				</g>
			</g>
		</g>
	</g>
</g>
<polygon class="st2" points="135.76,284.04 135.76,384.96 509.01,444.12 547.11,406.24 547.11,294.87 353.92,283.76 353.82,269.25 
	280.35,265.17 280.35,279.63 209.87,275.93 "/>
<polygon class="st0" points="135.76,284.04 208.93,275.67 553.34,294.88 509.15,313.64 "/>
<polyline class="st1" points="208.93,396.27 208.93,289.79 281.29,279.66 "/>
<polyline class="st0" points="293.22,409.53 293.22,296.59 353.87,283.79 353.76,269.25 "/>
<line class="st0" x1="135.76" y1="305.25" x2="208.93" y2="314.23"/>
<line class="st0" x1="293.22" y1="324.65" x2="371.87" y2="334.3"/>
<line class="st0" x1="371.87" y1="422.11" x2="371.87" y2="303.43"/>
<path class="st5" d="M173.69,296.81l-9.65-1.18c-1.11-0.14-2.01-1.14-2.01-2.23l0,0c0-1.09,0.91-1.87,2.01-1.73l9.65,1.18
	c1.11,0.14,2.01,1.14,2.01,2.23v0C175.7,296.17,174.79,296.95,173.69,296.81z"/>
<path class="st5" d="M335.18,310.89l-9.65-1.18c-1.11-0.14-2.01-1.14-2.01-2.23l0,0c0-1.09,0.91-1.87,2.01-1.73l9.65,1.18
	c1.11,0.14,2.01,1.14,2.01,2.23l0,0C337.19,310.24,336.29,311.02,335.18,310.89z"/>
<line class="st0" x1="293.22" y1="353.21" x2="371.87" y2="363.66"/>
<path class="st5" d="M335.18,339.45l-9.65-1.18c-1.11-0.14-2.01-1.14-2.01-2.23l0,0c0-1.09,0.91-1.87,2.01-1.73l9.65,1.18
	c1.11,0.14,2.01,1.14,2.01,2.23v0C337.19,338.81,336.29,339.59,335.18,339.45z"/>
<path class="st5" d="M200.88,338.48l-0.08-9.72c-0.01-1.11-0.9-2.13-1.98-2.25l0,0c-1.08-0.12-1.96,0.69-1.95,1.8l0.08,9.72
	c0.01,1.11,0.9,2.13,1.98,2.25l0,0C200.01,340.41,200.89,339.6,200.88,338.48z"/>
<path class="st5" d="M363.04,385.93l-0.08-9.72c-0.01-1.11-0.9-2.13-1.98-2.25h0c-1.08-0.12-1.96,0.69-1.95,1.8l0.08,9.72
	c0.01,1.11,0.9,2.13,1.98,2.25l0,0C362.17,387.86,363.05,387.05,363.04,385.93z"/>
<g>
	<line class="st6" x1="308.22" y1="283.92" x2="306.17" y2="289.88"/>
	<line class="st6" x1="295.33" y1="286.85" x2="319.06" y2="286.95"/>
	<line class="st6" x1="299.53" y1="284.76" x2="314.86" y2="289.04"/>
	<line class="st6" x1="298.08" y1="288.97" x2="316.31" y2="284.83"/>
	<line class="st6" x1="303.87" y1="284.11" x2="310.52" y2="289.7"/>
	<line class="st6" x1="295.76" y1="287.93" x2="318.63" y2="285.87"/>
	<line class="st6" x1="296.76" y1="285.65" x2="317.63" y2="288.15"/>
	<line class="st6" x1="301.46" y1="289.61" x2="312.93" y2="284.2"/>
	
		<ellipse transform="matrix(0.9999 -0.0167 0.0167 0.9999 -4.7517 5.1728)" class="st4" cx="307.18" cy="286.94" rx="4.3" ry="1.03"/>
</g>
<g>
	<line class="st6" x1="283.57" y1="282.16" x2="281.67" y2="287.68"/>
	<line class="st6" x1="271.63" y1="284.87" x2="293.62" y2="284.96"/>
	<line class="st6" x1="275.52" y1="282.93" x2="289.72" y2="286.9"/>
	<line class="st6" x1="274.18" y1="286.84" x2="291.07" y2="283"/>
	<line class="st6" x1="279.54" y1="282.33" x2="285.7" y2="287.51"/>
	<line class="st6" x1="272.03" y1="285.87" x2="293.22" y2="283.97"/>
	<line class="st6" x1="272.95" y1="283.76" x2="292.29" y2="286.08"/>
	<line class="st6" x1="277.31" y1="287.42" x2="287.94" y2="282.41"/>
	
		<ellipse transform="matrix(0.9999 -0.0167 0.0167 0.9999 -4.7219 4.762)" class="st4" cx="282.61" cy="284.96" rx="3.98" ry="0.96"/>
</g>
<g>
	<line class="st6" x1="283.64" y1="288.18" x2="281.58" y2="294.14"/>
	<line class="st6" x1="270.74" y1="291.11" x2="294.48" y2="291.21"/>
	<line class="st6" x1="290.27" y1="293.3" x2="274.95" y2="289.02"/>
	<line class="st6" x1="273.49" y1="293.23" x2="291.73" y2="289.09"/>
	<line class="st6" x1="279.28" y1="288.36" x2="285.94" y2="293.95"/>
	<line class="st6" x1="271.17" y1="292.19" x2="294.05" y2="290.13"/>
	<line class="st6" x1="272.17" y1="289.91" x2="293.05" y2="292.41"/>
	<line class="st6" x1="276.87" y1="293.86" x2="288.35" y2="288.45"/>
	<ellipse transform="matrix(0.9999 -0.0167 0.0167 0.9999 -4.8262 4.7626)" class="st4" cx="282.6" cy="291.2" rx="4.3" ry="1.03"/>
</g>
<g>
	<line class="st6" x1="258.43" y1="285.89" x2="256.53" y2="291.41"/>
	<line class="st6" x1="246.48" y1="288.6" x2="268.47" y2="288.7"/>
	<line class="st6" x1="250.38" y1="286.67" x2="264.58" y2="290.64"/>
	<line class="st6" x1="249.03" y1="290.57" x2="265.92" y2="286.73"/>
	<line class="st6" x1="254.4" y1="286.06" x2="260.56" y2="291.24"/>
	<line class="st6" x1="246.88" y1="289.6" x2="268.07" y2="287.7"/>
	<line class="st6" x1="247.81" y1="287.49" x2="267.15" y2="289.81"/>
	<line class="st6" x1="252.16" y1="291.16" x2="262.79" y2="286.15"/>
	
		<ellipse transform="matrix(0.9999 -0.0167 0.0167 0.9999 -4.7878 4.3424)" class="st4" cx="257.47" cy="288.69" rx="3.98" ry="0.96"/>
</g>
<polygon class="st0" points="392.18,300.03 492.04,307.27 513.43,298.53 413.64,292.42 "/>
<line class="st0" x1="413.64" y1="292.42" x2="413.64" y2="301.58"/>
<polyline class="st0" points="140.92,385.77 140.92,392.77 642.32,477.82 677.21,436.23 677.16,427.51 "/>
<line class="st7" x1="380.39" y1="422.84" x2="380.39" y2="317.58"/>
<g>
	<ellipse class="st8" cx="221.06" cy="297.4" rx="4.53" ry="4.71"/>
	<path class="st9" d="M216.49,297.94c0,2.08,1.62,3.77,3.62,3.77s3.62-1.69,3.62-3.77s-1.62-3.77-3.62-3.77
		c-0.75,0-1.45,0.24-2.02,0.64C217.12,295.5,216.49,296.64,216.49,297.94z"/>
	<line class="st9" x1="221.8" y1="301.39" x2="218.08" y2="294.82"/>
</g>
<g>
	<ellipse class="st8" cx="245.49" cy="299.53" rx="4.53" ry="4.71"/>
	<path class="st9" d="M240.92,300.07c0,2.08,1.62,3.77,3.62,3.77c2,0,3.62-1.69,3.62-3.77c0-2.08-1.62-3.77-3.62-3.77
		c-0.75,0-1.45,0.24-2.02,0.64C241.55,297.63,240.92,298.77,240.92,300.07z"/>
	<line class="st9" x1="246.23" y1="303.52" x2="242.52" y2="296.95"/>
</g>
<g>
	<ellipse class="st8" cx="257.85" cy="300.65" rx="4.53" ry="4.71"/>
	<path class="st9" d="M253.28,301.2c0,2.08,1.62,3.77,3.62,3.77c2,0,3.62-1.69,3.62-3.77s-1.62-3.77-3.62-3.77
		c-0.75,0-1.45,0.24-2.02,0.64C253.91,298.75,253.28,299.9,253.28,301.2z"/>
	<line class="st9" x1="258.59" y1="304.64" x2="254.87" y2="298.07"/>
</g>
<g>
	<ellipse class="st8" cx="270.58" cy="301.71" rx="4.53" ry="4.71"/>
	<path class="st9" d="M266.01,302.25c0,2.08,1.62,3.77,3.62,3.77c2,0,3.62-1.69,3.62-3.77c0-2.08-1.62-3.77-3.62-3.77
		c-0.75,0-1.45,0.24-2.02,0.64C266.64,299.81,266.01,300.95,266.01,302.25z"/>
	<line class="st9" x1="271.32" y1="305.7" x2="267.61" y2="299.13"/>
</g>
<g>
	<ellipse class="st8" cx="283.32" cy="302.41" rx="4.53" ry="4.71"/>
	<path class="st9" d="M278.74,302.96c0,2.08,1.62,3.77,3.62,3.77s3.62-1.69,3.62-3.77s-1.62-3.77-3.62-3.77
		c-0.75,0-1.45,0.24-2.02,0.64C279.38,300.51,278.74,301.65,278.74,302.96z"/>
	<line class="st9" x1="284.05" y1="306.4" x2="280.34" y2="299.83"/>
</g>
<line class="st0" x1="208.91" y1="302.97" x2="293.05" y2="310.47"/>
<g>
	<path class="st10" d="M216.19,314.08l2.09-3.23c0.54-0.84,0.01-1.6-1.18-1.7l-0.96-0.08c-1.19-0.1-2.6,0.5-3.14,1.34l-2.09,3.23
		c-0.54,0.84-0.01,1.6,1.18,1.7l0.96,0.08C214.23,315.52,215.65,314.91,216.19,314.08z"/>
	<path class="st11" d="M288.91,320.89l2.13-3.23c0.55-0.83,0-1.6-1.21-1.71l-0.98-0.08c-1.22-0.1-2.66,0.49-3.21,1.33l-2.13,3.23
		c-0.55,0.83,0,1.6,1.21,1.71l0.98,0.08C286.92,322.32,288.36,321.72,288.91,320.89z"/>
	<path class="st12" d="M288.46,320.94L288.46,320.94c0.62-0.8-0.04-1.56-1.47-1.69l-72.11-6.69c-1.43-0.13-3.11,0.41-3.73,1.21l0,0
		c-0.62,0.8,0.04,1.56,1.47,1.69l72.11,6.69C286.16,322.28,287.84,321.74,288.46,320.94z"/>
</g>
<g>
	<path class="st13" d="M232.35,391.34l0.97-1.43c0.25-0.37,0-0.74-0.55-0.83l-0.44-0.07c-0.55-0.08-1.21,0.15-1.46,0.52l-0.97,1.43
		c-0.25,0.37,0,0.74,0.55,0.83l0.44,0.07C231.44,391.95,232.1,391.71,232.35,391.34z"/>
	<path class="st13" d="M266.1,396.82l0.99-1.43c0.26-0.37,0-0.74-0.56-0.83l-0.46-0.07c-0.57-0.09-1.24,0.14-1.49,0.51l-0.99,1.43
		c-0.26,0.37,0,0.74,0.56,0.83l0.46,0.07C265.17,397.42,265.84,397.19,266.1,396.82z"/>
	<path class="st13" d="M265.89,396.83L265.89,396.83c0.29-0.35-0.02-0.73-0.68-0.83l-33.46-5.41c-0.66-0.11-1.44,0.09-1.73,0.44l0,0
		c-0.29,0.35,0.02,0.73,0.68,0.83l33.46,5.41C264.82,397.38,265.6,397.18,265.89,396.83z"/>
</g>
<line class="st0" x1="208.91" y1="378.46" x2="293.05" y2="390.74"/>
<polygon class="st1" points="218.48,324.33 218.48,357.82 281.29,366.54 281.29,330.3 "/>
<polygon class="st7" points="509.09,444.28 509.09,198.46 642.32,203.11 642.32,466.53 "/>
<polyline class="st7" points="380.39,317.58 498.67,329.47 498.65,441.65 498.67,329.47 "/>
<line class="st0" x1="509.09" y1="288.43" x2="642.32" y2="297.92"/>
<polyline class="st0" points="509.09,198.46 564.33,189.71 677.17,191.82 642.32,203.11 "/>
<polyline class="st0" points="677.17,191.82 677.17,427.51 642.32,466.53 642.32,477.82 "/>
<g>
	<path class="st14" d="M521.04,276.15l3.18-0.55c0.82-0.14,1.48,0.2,1.47,0.76l-0.01,0.45c-0.01,0.56-0.7,1.13-1.52,1.27l-3.18,0.55
		c-0.82,0.14-1.48-0.2-1.47-0.76l0.01-0.45C519.53,276.87,520.22,276.29,521.04,276.15z"/>
	<path class="st14" d="M521.2,241.9l3.18-0.57c0.82-0.15,1.48,0.2,1.47,0.77l-0.01,0.46c-0.01,0.57-0.69,1.16-1.51,1.31l-3.18,0.57
		c-0.82,0.15-1.48-0.2-1.47-0.77l0.01-0.46C519.7,242.63,520.38,242.05,521.2,241.9z"/>
	<path class="st14" d="M521.11,242.1L521.11,242.1c0.79-0.18,1.44,0.22,1.44,0.89l-0.22,33.95c0,0.67-0.66,1.38-1.45,1.56l0,0
		c-0.79,0.18-1.44-0.22-1.44-0.89l0.22-33.95C519.67,242.99,520.32,242.29,521.11,242.1z"/>
</g>
<g>
	<path class="st14" d="M521.04,335.05l3.18-0.55c0.82-0.14,1.48,0.2,1.47,0.76l-0.01,0.45c-0.01,0.56-0.7,1.13-1.52,1.27l-3.18,0.55
		c-0.82,0.14-1.48-0.2-1.47-0.76l0.01-0.45C519.53,335.76,520.22,335.19,521.04,335.05z"/>
	<path class="st14" d="M521.2,300.79l3.18-0.57c0.82-0.15,1.48,0.2,1.47,0.77l-0.01,0.46c-0.01,0.57-0.69,1.16-1.51,1.31l-3.18,0.57
		c-0.82,0.15-1.48-0.2-1.47-0.77l0.01-0.46C519.7,301.53,520.38,300.94,521.2,300.79z"/>
	<path class="st14" d="M521.11,301L521.11,301c0.79-0.18,1.44,0.22,1.44,0.89l-0.22,33.95c0,0.67-0.66,1.38-1.45,1.56l0,0
		c-0.79,0.18-1.44-0.22-1.44-0.89l0.22-33.95C519.67,301.88,520.32,301.18,521.11,301z"/>
</g>
<polyline class="st7" points="642.32,181.91 677.17,171.07 677.17,97.24 642.32,86.46 "/>
<polyline class="st7" points="505.5,180.45 642.32,181.82 642.32,86.46 505.5,93.63 "/>
<polygon class="st7" points="154.48,222.31 505.5,231.65 505.5,93.63 154.48,113.47 "/>
<line class="st7" x1="204.13" y1="110.67" x2="204.13" y2="223.95"/>
<line class="st7" x1="256.9" y1="225.04" x2="256.9" y2="107.69"/>
<line class="st7" x1="313.73" y1="104.47" x2="313.73" y2="226.55"/>
<line class="st7" x1="371.87" y1="101.19" x2="371.87" y2="228.1"/>
<line class="st7" x1="437.25" y1="97.49" x2="437.25" y2="229.84"/>
<path class="st15" d="M199.58,193.16l-0.09-9.72c-0.01-1.11-0.46-2.13-1-2.26l0,0c-0.54-0.13-0.98,0.68-0.97,1.79l0.09,9.72
	c0.01,1.11,0.46,2.13,1,2.26l0,0C199.16,195.08,199.59,194.27,199.58,193.16z"/>
<path class="st15" d="M319.95,195.68l-0.09-9.72c-0.01-1.11-0.46-2.13-1-2.26l0,0c-0.54-0.13-0.98,0.68-0.97,1.79l0.09,9.72
	c0.01,1.11,0.46,2.13,1,2.26l0,0C319.52,197.6,319.96,196.8,319.95,195.68z"/>
<path class="st15" d="M433.09,197.85l-0.09-9.72c-0.01-1.11-0.46-2.13-1-2.26l0,0c-0.54-0.13-0.98,0.68-0.97,1.79l0.09,9.72
	c0.01,1.11,0.46,2.13,1,2.26l0,0C432.66,199.77,433.1,198.97,433.09,197.85z"/>
<path class="st15" d="M443.46,197.85l-0.09-9.72c-0.01-1.11-0.46-2.13-1-2.26l0,0c-0.54-0.13-0.98,0.68-0.97,1.79l0.09,9.72
	c0.01,1.11,0.46,2.13,1,2.26l0,0C443.04,199.77,443.47,198.97,443.46,197.85z"/>
<path class="st15" d="M631.84,167.43l-0.09-9.72c-0.01-1.11-0.46-2.13-1-2.26v0c-0.54-0.13-0.98,0.68-0.97,1.79l0.09,9.72
	c0.01,1.11,0.46,2.13,1,2.26l0,0C631.42,169.35,631.85,168.54,631.84,167.43z"/>
<polygon class="st16" points="192.22,247.08 201.51,246.08 201.51,230.17 192.22,230.46 "/>
<g>
	<path class="st16" d="M194.27,235.06c0,1.92,1.81,2.12,2.66,2.08c0.85-0.04,2.69-0.41,2.69-2.33c0-1.58-0.7-2.36-0.87-2.42
		s-1.8,0.04-1.8,0.04s-1.68,0.05-1.8,0.16C195.03,232.7,194.27,233.48,194.27,235.06z"/>
	<g>
		<polygon class="st17" points="197.72,235.16 198.24,235.14 198.24,233.17 197.72,233.19 		"/>
		<polygon class="st17" points="195.66,235.25 196.18,235.23 196.18,233.27 195.66,233.29 		"/>
		
			<ellipse transform="matrix(0.6989 -0.7153 0.7153 0.6989 -109.6774 211.9317)" class="st17" cx="196.85" cy="236.22" rx="0.49" ry="0.47"/>
	</g>
</g>
<g>
	<path class="st16" d="M194.27,241.54c0,1.92,1.81,2.12,2.66,2.08s2.69-0.41,2.69-2.33c0-1.58-0.7-2.36-0.87-2.42
		s-1.8,0.04-1.8,0.04s-1.68,0.05-1.8,0.16C195.03,239.18,194.27,239.96,194.27,241.54z"/>
	<g>
		<polygon class="st17" points="197.72,241.64 198.24,241.62 198.24,239.65 197.72,239.68 		"/>
		<polygon class="st17" points="195.66,241.74 196.18,241.71 196.18,239.75 195.66,239.77 		"/>
		
			<ellipse transform="matrix(0.6989 -0.7153 0.7153 0.6989 -114.3141 213.8838)" class="st17" cx="196.85" cy="242.7" rx="0.49" ry="0.47"/>
	</g>
</g>
<rect x="550.36" y="239.08" transform="matrix(0.9743 0.2253 -0.2253 0.9743 71.9374 -120.4101)" class="st0" width="26.48" height="31.89"/>
<circle class="st7" cx="567.92" cy="238.96" r="5.4"/>
<rect x="589.03" y="251.3" transform="matrix(0.9999 -0.0167 0.0167 0.9999 -4.3396 10.0656)" class="st18" width="22.3" height="26.85"/>
<polygon class="st7" points="595.16,246.82 592.75,259.83 605.23,255.42 "/>
<line class="st1" x1="137.19" y1="385.25" x2="137.19" y2="394.2"/>
<path class="st7" d="M466.67,292.74c0,0-0.96,0.37-3.81,0.37c-2.86,0-3.81-0.37-3.81-0.37v-9.08c0,0,2.34-0.04,3.97-0.04
	s3.66,0.04,3.66,0.04V292.74z"/>
<polygon class="st7" points="463.34,281.46 465.46,283.26 452.27,265.99 449.23,268.64 "/>
<path class="st19" d="M460.88,283.44h3.64c0,0-0.37-2.19-2.14-3.45c-4.49-3.19-14-7.72-17.61-7.97c-5.03-0.35-6.37,3.28-6.37,3.92
	c0,0.65,0,5.5,0,5.5l5.99,0.73v-4.16c0,0-0.1-1.65,1.93-0.93C447.37,277.46,460.88,283.44,460.88,283.44z"/>
<polyline class="st0" points="449.23,268.64 447.39,265.4 452.27,265.99 "/>
<line class="st19" x1="438.41" y1="279.23" x2="444.4" y2="279.95"/>
<path class="st20" d="M106.42,212.06"/>
<path class="st21" d="M106.42,211.2"/>
<path class="st21" d="M33.51,212.66"/>
<path class="st22" d="M97.5,183.77"/>
<path class="st22" d="M73.23,266.15"/>
<path class="st22" d="M97.24,237.67"/>
<line class="st2" x1="541.01" y1="180.76" x2="541.01" y2="193.4"/>
<line class="st2" x1="505.5" y1="231.63" x2="509.09" y2="229.81"/>
<path class="st4" d="M332.65,268.53c0,0-0.4,1.9-1.12,2.77c-0.5,0.6-1.04,1.23-1.77,1.5c-1.57,0.59-3.68-0.55-4.85,0.66
	c-0.46,0.48-0.63,1.23-1.2,1.55c-0.59,0.33-1.33,0.05-1.89-0.33c-0.56-0.38-1.08-0.87-1.74-1c-1.25-0.25-2.34,0.86-3.03,1.94
	c-0.19,0.29-0.43,0.63-0.78,0.62c-0.18-0.01-0.34-0.11-0.49-0.2c-1.11-0.72-2.29-1.57-2.64-2.84c-0.25-0.9-0.04-1.91-0.42-2.76
	c-0.47-1.05-1.76-1.97-1.6-3.12L332.65,268.53z"/>
<g>
	<path class="st4" d="M326,285.92c0.09,0.03,0.6-0.2,0.8-0.21c0.34-0.03,0.7-0.06,1.03,0c0.22,0.04,0.43,0.15,0.59,0.36
		c-0.31,0.21-1.05,0.09-1.43,0.09C326.59,286.17,326.3,286.14,326,285.92"/>
	<path class="st4" d="M327.07,286.96c0.03,0.01,0.07-0.02,0.1-0.03c0.06-0.02,0.14-0.04,0.2-0.07c0.04-0.02,0.08-0.05,0.12-0.07
		c0.06-0.02,0.13-0.02,0.19-0.04c0.11-0.03,0.22-0.05,0.34-0.03c0.13,0.02,0.26,0,0.38,0.02c0.04,0.01,0.07,0.02,0.1,0.02
		c0.05,0.01,0.1,0.01,0.15,0.02c0.06,0.01,0.14,0.02,0.19,0.05c0.05,0.02,0.09,0.06,0.14,0.08c0.04,0.03,0.09,0.05,0.14,0.07
		c0.04,0.02,0.07,0.05,0.11,0.06c-0.05,0.03-0.12,0.03-0.17,0.05c-0.04,0.01-0.07,0.03-0.11,0.04c-0.08,0.02-0.17,0.03-0.26,0.06
		c-0.07,0.03-0.14,0.03-0.21,0.04c-0.05,0.01-0.09,0.01-0.14,0.02c-0.08,0.01-0.16,0.01-0.25,0.02c-0.03,0-0.05,0.01-0.08,0.01
		c-0.07,0-0.13-0.02-0.2-0.03c-0.09-0.02-0.17-0.06-0.25-0.09c-0.07-0.03-0.16-0.06-0.23-0.09c-0.05-0.03-0.11-0.03-0.17-0.04
		c-0.03-0.01-0.04-0.03-0.07-0.04"/>
	<path class="st4" d="M327.12,284.83c0.04,0,0.07-0.02,0.1-0.02c0.07-0.02,0.16-0.02,0.23-0.03c0.09-0.01,0.17-0.03,0.25-0.06
		c0.05-0.02,0.1-0.03,0.16-0.03c0.09-0.02,0.16-0.01,0.25,0c0.05,0,0.09,0,0.14,0c0.03,0,0.05,0.01,0.08,0.02
		c0.05,0.02,0.11,0.03,0.16,0.04c0.08,0.02,0.16,0.04,0.24,0.06c0.06,0.02,0.13,0.03,0.17,0.08c0.02,0.02,0.02,0.06,0.04,0.08
		c0.02,0.02,0.04,0.04,0.06,0.06c-0.04,0-0.07,0.01-0.11,0.02c-0.06,0.02-0.12,0.04-0.18,0.05c-0.03,0-0.07,0-0.1,0.01
		c-0.05,0.01-0.1,0.04-0.16,0.05c-0.08,0.01-0.17,0.01-0.25,0.01c-0.04,0-0.08-0.02-0.11-0.02c-0.11-0.01-0.22-0.03-0.33-0.06
		c-0.11-0.04-0.22-0.07-0.33-0.09c-0.05-0.01-0.11-0.02-0.15-0.05C327.25,284.89,327.18,284.87,327.12,284.83z"/>
	<path class="st4" d="M325.39,284.1c0.05-0.01,0.1-0.02,0.15-0.04c0.05-0.02,0.09-0.04,0.14-0.05c0.07-0.01,0.14-0.02,0.2-0.04
		c0.11-0.05,0.23-0.07,0.35-0.07c0.1,0,0.18-0.01,0.28,0c0.08,0,0.16,0,0.23,0.04c0.03,0.01,0.05,0.04,0.08,0.05
		c0.07,0.02,0.14,0.03,0.21,0.06c0.08,0.03,0.15,0.05,0.23,0.08c0.02,0.01,0.05,0.02,0.07,0.03c0.02,0.01,0.01,0.03,0.04,0.03
		c-0.01,0.01-0.04,0.02-0.05,0.03c-0.04,0.03-0.07,0.07-0.13,0.09c-0.03,0.01-0.06,0.01-0.09,0.02c-0.03,0.01-0.04,0.02-0.07,0.02
		c-0.03,0-0.05,0.01-0.08,0.02c-0.09,0.03-0.19,0.04-0.29,0.05c-0.06,0.01-0.12,0.02-0.18,0.03c-0.06,0.01-0.13,0-0.19-0.01
		c-0.05-0.01-0.1-0.02-0.16-0.01c-0.05,0-0.1,0-0.16-0.02c-0.04-0.02-0.08-0.04-0.13-0.05c-0.03-0.01-0.05-0.01-0.08-0.01
		c-0.06-0.01-0.11-0.04-0.16-0.08c-0.04-0.03-0.09-0.06-0.13-0.09C325.44,284.15,325.4,284.13,325.39,284.1z"/>
	<path class="st4" d="M325.32,285.15c0.04-0.01,0.09-0.02,0.13-0.03c0.04-0.01,0.05-0.03,0.08-0.05c0.02-0.01,0.04-0.01,0.06-0.02
		c0.03-0.02,0.07-0.03,0.1-0.05c0.06-0.03,0.12-0.05,0.19-0.07c0.05-0.01,0.09-0.04,0.14-0.04c0.03,0,0.05,0.01,0.08,0.02
		c0.04,0.01,0.08,0.01,0.12,0.01c0.1,0.01,0.21,0.03,0.31,0.04c0.07,0.01,0.15,0.01,0.22,0.03c0.04,0.01,0.1,0.04,0.14,0.06
		c0.03,0.02,0.05,0.04,0.07,0.05c-0.05,0.01-0.09,0.05-0.14,0.08c-0.03,0.02-0.07,0.02-0.1,0.03c-0.04,0.02-0.08,0.02-0.12,0.04
		c-0.08,0.02-0.15,0.07-0.23,0.09c-0.04,0.01-0.09,0.01-0.14,0.01c-0.14-0.01-0.28-0.04-0.42-0.06c-0.09-0.01-0.19-0.01-0.28-0.03
		c-0.04-0.01-0.07-0.04-0.1-0.06C325.38,285.18,325.36,285.18,325.32,285.15z"/>
	<path class="st4" d="M324.78,285.74c-0.16,0.01-0.33-0.07-0.48-0.1c-0.21-0.04-0.43-0.11-0.64-0.11c-0.18,0-0.37-0.04-0.54,0.01
		c-0.15,0.04-0.33,0.07-0.45,0.15c-0.08,0.05-0.15,0.08-0.23,0.12c0.05,0.09,0.16,0.1,0.25,0.14c0.09,0.04,0.18,0.07,0.27,0.09
		c0.3,0.05,0.67,0.11,0.97,0.02c0.07-0.02,0.14-0.05,0.21-0.06c0.14-0.03,0.28-0.01,0.4-0.08
		C324.61,285.84,324.7,285.78,324.78,285.74z"/>
	<path class="st4" d="M326.52,286.67c-0.03-0.03-0.11-0.05-0.14-0.06c-0.11-0.04-0.22-0.06-0.32-0.11c-0.17-0.07-0.32-0.13-0.5-0.16
		c-0.38-0.08-0.7,0.08-1.05,0.18c-0.1,0.03-0.21,0.15-0.31,0.15c0,0,0,0.02,0,0.02c0.1,0.02,0.22,0.1,0.31,0.15
		c0.13,0.08,0.3,0.08,0.45,0.08c0.04,0.13,0.53,0.07,0.63,0.07c0.18-0.01,0.41,0,0.57-0.06
		C326.28,286.87,326.42,286.73,326.52,286.67z"/>
	<path class="st4" d="M323.77,286.52c-0.12-0.02-0.21-0.04-0.33-0.02c-0.08,0.02-0.16,0.04-0.24,0.06c-0.2,0.04-0.4,0.05-0.6,0.11
		c-0.16,0.05-0.24,0.11-0.36,0.21c-0.07,0.06-0.18,0.08-0.25,0.13c-0.06,0.05-0.1,0.18-0.13,0.26c0.14,0.01,0.29,0.01,0.43,0
		c0.19-0.01,0.33-0.05,0.51-0.1c0.2-0.05,0.34-0.02,0.52-0.13c0.13-0.08,0.25-0.12,0.36-0.24c0.07-0.08,0.13-0.17,0.2-0.25
		C323.83,286.55,323.79,286.54,323.77,286.52z"/>
</g>
<path class="st4" d="M265.1,283.26c0-0.03,0.03-0.06,0.06-0.09c0.11-0.1,0.3-0.17,0.49-0.24c0.16-0.05,0.33-0.1,0.53-0.12
	c0.19-0.02,0.41,0.01,0.54,0.08c0.15,0.09,0.12,0.22,0.02,0.32c-0.04,0.04-0.1,0.08-0.17,0.12c-0.11,0.05-0.25,0.08-0.38,0.11
	c-0.17,0.05-0.33,0.1-0.52,0.12c-0.14,0.02-0.37,0-0.45-0.07c-0.03-0.03-0.02-0.07-0.03-0.1
	C265.16,283.35,265.1,283.31,265.1,283.26z"/>
<path class="st4" d="M267.22,282.86c0.02,0.11,0.09,0.21,0.21,0.3c0.03,0.02,0.06,0.05,0.11,0.06c0.11,0.03,0.25,0.02,0.37,0.03
	c0.21,0.02,0.39,0.12,0.59,0.09c0.08-0.01,0.14-0.04,0.2-0.07c0.05-0.03,0.1-0.06,0.16-0.08c0.03-0.02,0.07-0.04,0.08-0.06
	c0.01-0.04-0.04-0.07-0.09-0.1c-0.19-0.11-0.42-0.21-0.66-0.29c-0.17-0.06-0.38-0.12-0.59-0.08
	C267.39,282.69,267.2,282.76,267.22,282.86z"/>
<path class="st4" d="M269.13,283.66c0.11,0.07,0.3,0.09,0.47,0.1c0.18,0,0.35-0.01,0.53-0.01c0.1,0,0.2,0.01,0.3,0
	s0.2-0.04,0.22-0.09c0.02-0.04-0.02-0.08-0.07-0.1c-0.06-0.03-0.13-0.05-0.2-0.06c-0.2-0.05-0.4-0.1-0.62-0.12
	C269.45,283.35,268.77,283.45,269.13,283.66z"/>
<path class="st4" d="M268.34,284.59c0.04-0.06,0.09-0.12,0.17-0.18s0.21-0.09,0.35-0.09c0.09,0,0.18,0.02,0.26,0.05
	c0.13,0.04,0.25,0.09,0.3,0.16c0.02,0.03,0.03,0.06,0.03,0.09c-0.01,0.18-0.3,0.35-0.66,0.41c-0.11,0.02-0.23,0.03-0.35,0.02
	c-0.12-0.01-0.23-0.04-0.29-0.09C268.04,284.88,268.27,284.69,268.34,284.59z"/>
<path class="st4" d="M265.58,285.13c0.18-0.02,0.36,0,0.54,0.01c0.12,0.01,0.25,0.03,0.35,0.06c0.11,0.03,0.2,0.08,0.23,0.13
	c0.03,0.06,0,0.13-0.1,0.16c-0.1,0.04-0.24,0.03-0.36,0.03c-0.07,0-0.14,0-0.21-0.01c-0.14-0.01-0.28-0.01-0.42-0.03
	C265.13,285.43,265.03,285.19,265.58,285.13z"/>
<path class="st4" d="M267.52,283.59c0.15-0.03,0.33-0.03,0.48,0c0.07,0.02,0.13,0.04,0.17,0.07c0.07,0.06,0.06,0.12,0.04,0.19
	c-0.04,0.19-0.08,0.38-0.13,0.57c-0.02,0.1-0.07,0.22-0.26,0.26c-0.13,0.03-0.28,0.02-0.4-0.02s-0.19-0.09-0.25-0.15
	C266.96,284.27,266.93,283.72,267.52,283.59z"/>
<path class="st4" d="M264.2,284.43c-0.05-0.05-0.03-0.11,0.04-0.16s0.16-0.08,0.25-0.11c0.09-0.03,0.18-0.06,0.26-0.09
	c0.31-0.11,0.65-0.23,1.04-0.23c0.21,0,0.41,0.03,0.58,0.09c0.05,0.02,0.1,0.04,0.11,0.07c0.02,0.04-0.04,0.08-0.1,0.11
	c-0.16,0.08-0.35,0.15-0.55,0.22c-0.38,0.12-0.81,0.22-1.26,0.19c-0.1-0.01-0.21-0.02-0.28-0.05"/>
<line class="st1" x1="677.17" y1="427.5" x2="790.5" y2="442.46"/>
<line class="st1" x1="677.17" y1="436.06" x2="790.5" y2="451.02"/>
<path class="st7" d="M451.19,303.94c3.88-2.43,8.3-4.55,13.85-6.66c14.13-5.38,26.8-6.55,28.29-2.62c1.07,2.81-3.3,7.15-11.36,11.54
	"/>
<path class="st23" d="M458.4,304.83c2.04-1.38,4.82-2.81,7.99-4.01c7.09-2.7,13.44-3.28,14.19-1.32c0.58,1.51-2.33,4.1-6.92,6.44"/>
<path class="st24" d="M282.62,295.2"/>
<path class="st15" d="M211.64,193.77l-0.09-9.72c-0.01-1.11-0.46-2.13-1-2.26h0c-0.54-0.13-0.98,0.68-0.97,1.79l0.09,9.72
	c0.01,1.11,0.46,2.13,1,2.26l0,0C211.21,195.69,211.65,194.88,211.64,193.77z"/>
<path class="st15" d="M308.28,195.71l-0.09-9.72c-0.01-1.11-0.46-2.13-1-2.26l0,0c-0.54-0.13-0.98,0.68-0.97,1.79l0.09,9.72
	c0.01,1.11,0.46,2.13,1,2.26l0,0C307.85,197.63,308.29,196.82,308.28,195.71z"/>
<line class="st1" x1="436.61" y1="432.81" x2="436.61" y2="323.66"/>
<path class="st5" d="M432.26,357.05l-0.08-9.72c-0.01-1.11-0.9-2.13-1.98-2.25l0,0c-1.08-0.12-1.96,0.69-1.95,1.8l0.08,9.72
	c0.01,1.11,0.9,2.13,1.98,2.25h0C431.39,358.98,432.27,358.16,432.26,357.05z"/>
<path class="st5" d="M444.63,358.68l-0.08-9.72c-0.01-1.11-0.9-2.13-1.98-2.25l0,0c-1.08-0.12-1.96,0.69-1.95,1.8l0.08,9.72
	c0.01,1.11,0.9,2.13,1.98,2.25l0,0C443.76,360.6,444.64,359.79,444.63,358.68z"/>
</svg>
